<svg width="336" height="336" viewBox="0 0 336 336" fill="none" xmlns="http://www.w3.org/2000/svg">
<rect width="336" height="336" fill="#60DFFF"/>
<rect width="336" height="336" fill="url(#paint0_radial_230_3132)"/>
<path d="M233.17 266.649C233.17 266.649 267.857 197.778 267.929 195.121C268.001 192.536 230.441 136.304 229.149 136.304C227.856 136.304 207.101 188.37 206.383 192.966C205.665 197.563 202.433 216.45 202.433 216.45C202.433 216.45 194.39 116.196 193.816 112.246C193.241 108.297 133.132 54.4353 131.768 54.0763C130.475 53.7172 117.261 85.603 117.189 89.5529C117.117 93.5027 83.5796 217.096 83.5796 220.687C83.5078 224.278 89.6121 235.194 90.5457 235.84C91.5511 236.486 110.51 256.738 110.51 256.738C110.51 256.738 84.0105 277.636 82.6461 280.868C81.2816 284.1 82.5024 293.292 82.5024 293.292C82.5024 293.292 113.598 314.693 115.896 315.052C118.194 315.411 141.463 312.179 141.463 312.179C141.463 312.179 141.247 305.285 150.08 304.136C158.914 302.987 195.036 294.944 195.036 294.944C195.036 294.944 237.551 299.827 239.777 299.827C242.075 299.827 251.555 278.067 251.268 276.415C251.052 274.764 233.17 266.649 233.17 266.649Z" fill="url(#paint1_linear_230_3132)"/>
<path d="M243.297 201.223C237.839 207.256 233.171 266.647 233.171 266.647C233.171 266.647 267.858 197.776 267.929 195.119C267.929 195.119 248.827 195.191 243.297 201.223Z" fill="#259BDD"/>
<path d="M129.326 310.527C165.449 306.936 146.992 267.654 128.823 262.196C110.654 256.666 86.2369 281.155 88.894 290.06C91.4076 298.965 105.914 312.897 129.326 310.527Z" fill="#60DFFF"/>
<path d="M184.84 289.198C199.203 286.757 203.225 197.993 185.558 143.486C167.892 88.9064 124.875 109.805 106.418 162.66C87.9617 215.516 102.899 236.342 130.261 245.535C157.622 254.727 165.378 292.574 184.84 289.198Z" fill="#60DFFF"/>
<path d="M201.357 291.927C193.17 285.894 210.406 265.786 229.006 272.034C247.606 278.282 242.292 291.999 229.58 293.938C216.869 295.877 207.82 296.667 201.357 291.927Z" fill="#60DFFF"/>
<path d="M209.185 259.251C201.932 257.384 206.816 182.983 224.626 168.979C242.436 154.904 255.362 170.918 255.434 196.341C255.578 221.62 238.127 266.791 209.185 259.251Z" fill="#60DFFF"/>
<path d="M141.536 312.106C141.536 312.106 141.321 305.212 150.154 304.063C158.987 302.914 195.11 294.871 195.11 294.871C195.11 294.871 237.625 299.754 239.851 299.754C242.149 299.754 251.629 277.994 251.341 276.342C251.341 276.342 230.73 287.186 220.892 287.043C211.053 286.899 203.513 273.541 203.513 273.541L221.251 263.487C221.251 263.487 220.676 236.988 221.107 228.657C221.466 220.327 207.103 190.667 207.103 190.667C206.744 191.744 206.529 192.534 206.457 192.965C205.739 197.561 202.507 216.449 202.507 216.449C202.507 216.449 202.435 215.515 202.292 213.791C200.353 238.998 194.967 283.237 194.967 287.186C194.895 291.136 161.357 235.623 155.899 233.253C150.513 230.883 92.9175 211.062 83.6534 220.614C83.5816 224.205 89.6859 235.12 90.6195 235.767C91.6249 236.413 110.584 256.665 110.584 256.665C110.584 256.665 137.443 256.378 139.885 256.306C142.326 256.234 157.479 295.517 157.479 295.517C157.479 295.517 128.179 282.303 113.959 282.806C99.74 283.237 82.5762 293.291 82.5762 293.291C82.5762 293.291 113.672 314.691 115.97 315.051C118.268 315.41 141.536 312.106 141.536 312.106Z" fill="#259BDD"/>
<path opacity="0.8" d="M131.84 54.003C130.548 53.6439 117.334 85.5298 117.262 89.4796C117.19 92.7113 94.4966 176.95 86.4533 208.692C85.3043 213.145 101.032 218.531 107.639 219.537C114.246 220.542 193.889 112.245 193.889 112.245C193.242 108.295 133.133 54.3621 131.84 54.003Z" fill="#C9FFFF"/>
<path opacity="0.8" d="M104.981 282.59C122.432 277.42 139.883 256.234 139.883 256.234L110.583 256.593C110.583 256.593 84.0832 277.492 82.7188 280.723C82.7188 280.867 87.5304 287.761 104.981 282.59Z" fill="#6ED3FF"/>
<path opacity="0.8" d="M221.25 263.488C221.25 263.488 209.329 270.239 208.539 273.614C207.749 276.99 220.891 287.044 224.697 286.397C228.504 285.751 249.617 274.907 242.436 271.029C241.718 270.67 240.928 270.311 240.209 269.952C232.741 266.505 221.25 263.488 221.25 263.488Z" fill="#6ED3FF"/>
<path opacity="0.8" d="M210.406 181.333C209.185 191.602 217.085 213.578 221.106 225.571C225.2 237.564 241.789 204.098 243.01 194.762C244.231 185.426 245.093 163.379 229.15 136.305C228.216 136.305 216.654 164.672 210.406 181.333Z" fill="#C9FFFF"/>
<path d="M141.607 311.46C141.607 311.46 115.825 283.883 124.3 285.032C132.702 286.181 157.047 294.727 158.843 296.379C160.638 298.031 174.283 295.23 174.283 295.23C174.283 295.23 149.794 228.586 156.975 235.839C164.157 243.092 193.745 288.767 196.402 292.07C199.059 295.374 159.345 300.76 148.573 304.063C137.873 307.295 141.607 311.46 141.607 311.46Z" fill="#2582DD"/>
<path d="M88.6789 296.739C85.8063 294.728 126.094 314.19 126.094 314.19L115.969 315.051C115.969 315.051 100.313 304.925 88.6789 296.739Z" fill="#2582DD"/>
<path d="M199.202 295.231C199.13 294.297 200.351 272.106 202.434 273.542C204.517 274.979 216.725 289.629 217.156 291.065C217.659 292.573 218.52 296.667 218.52 296.667L226.133 296.81C226.133 296.81 230.801 285.464 235.828 283.381C240.855 281.37 250.55 277.636 250.55 277.636C250.55 277.636 241.717 297.744 239.778 298.893C237.767 300.114 199.202 295.231 199.202 295.231Z" fill="#2582DD"/>
<path d="M206.814 271.675C206.814 271.675 214.714 208.908 216.653 212.499C218.592 216.162 221.177 226.934 221.106 228.586C221.034 230.237 221.249 263.416 221.249 263.416L206.814 271.675Z" fill="#2582DD"/>
<path d="M193.815 112.246C193.815 112.246 172.199 158.998 169.398 168.19C166.526 177.382 196.616 274.979 196.616 274.979L211.841 201.081L207.029 190.668L202.433 216.45L193.815 112.246Z" fill="#2582DD"/>
<path d="M90.6191 235.769C90.9064 232.393 139.884 256.308 139.884 256.308L110.584 256.667L90.6191 235.769Z" fill="#2582DD"/>
<path d="M132.631 60.3955C132.631 60.3955 169.759 109.732 172.201 119.715C174.642 129.697 100.242 182.553 98.6622 175.443C97.0104 168.262 115.754 97.0211 122.361 83.3045C128.824 69.7315 132.631 60.3955 132.631 60.3955Z" fill="#E0FFFF"/>
<path d="M215.289 180.686C213.422 190.524 232.237 209.986 237.767 205.605C243.297 201.225 243.512 172.427 237.408 156.197C231.232 139.967 223.835 135.514 215.289 180.686Z" fill="#E0FFFF"/>
<path d="M188.502 117.488C188.502 117.488 145.556 181.116 104.765 205.893C98.2303 209.842 87.3145 211.207 87.3145 211.207C87.3145 211.207 90.6897 215.731 107.638 219.537C124.586 223.344 152.163 231.746 156.831 233.972C161.571 236.127 179.094 265.14 179.094 265.14C179.094 265.14 160.135 229.663 157.98 227.222C155.826 224.78 165.377 229.232 139.165 224.995C112.952 220.758 114.461 214.079 118.482 209.196C122.504 204.313 152.522 169.411 156.329 167.256C160.135 165.102 164.731 168.621 166.167 170.129C167.604 171.637 171.338 204.313 172.99 207.76C174.641 211.207 182.972 228.658 182.972 228.658C182.972 228.658 170.189 178.244 169.184 169.411C167.388 153.252 188.502 117.488 188.502 117.488Z" fill="#E0FFFF"/>
<path d="M82.7188 280.866C82.7188 280.866 102.396 280.292 111.157 277.563C119.919 274.906 138.663 257.67 138.663 257.67C138.663 257.67 123.725 274.762 119.416 276.701C115.107 278.64 138.232 287.976 138.232 287.976C138.232 287.976 124.084 282.231 112.306 282.518C100.529 282.877 86.094 291.279 86.094 291.279C86.094 291.279 97.369 284.529 95.2145 284.529C93.1319 284.601 85.9504 284.313 82.7188 280.866Z" fill="#E0FFFF"/>
<path d="M232.381 142.12C232.381 142.12 239.778 169.194 238.916 187.148C237.983 205.174 235.9 215.515 228.144 217.813C220.388 220.111 214.499 207.184 214.499 207.184C214.499 207.184 219.095 218.1 220.101 223.343C221.106 228.585 221.178 258.819 221.178 258.819C221.178 258.819 222.327 228.226 223.117 228.154C223.907 228.011 226.636 229.734 231.95 220.183C237.264 210.56 233.315 257.311 233.315 257.311C233.315 257.311 240.496 203.594 242.291 201.511C244.087 199.357 258.881 195.766 258.881 195.766C258.881 195.766 245.164 195.981 244.949 194.832C244.805 193.683 244.374 179.895 241.142 165.532C237.983 151.169 232.381 142.12 232.381 142.12Z" fill="#E0FFFF"/>
<path d="M209.257 275.912C209.257 275.912 219.455 281.011 225.559 282.232C231.663 283.525 243.369 274.691 243.369 274.691C243.369 274.691 231.376 284.889 226.133 285.966C220.963 287.044 215.002 282.017 209.257 275.912Z" fill="#E0FFFF"/>
<path d="M268.071 138.799C260.032 138.198 252.97 129.407 252.97 129.407C252.97 129.407 246.058 70.2794 248.537 61.5642C251.016 52.9242 270.926 27.3046 273.405 26.0273C275.885 24.7501 304.059 68.6265 305.486 75.1629C306.914 81.6993 296.846 102.36 294.968 104.239C293.014 106.117 268.071 138.799 268.071 138.799Z" fill="url(#paint2_linear_230_3132)"/>
<path d="M264.389 133.539C246.883 126.401 246.733 79.7449 259.355 59.7601C271.977 39.7753 294.291 63.6669 296.921 78.4676C299.55 93.2684 273.254 137.22 264.389 133.539Z" fill="#60DFFF"/>
<path d="M248.537 61.5642C246.058 70.2043 252.97 129.407 252.97 129.407C252.97 129.407 260.032 138.198 268.071 138.799C268.071 138.799 293.089 106.117 294.968 104.239C297.973 94.9223 272.579 122.796 272.579 122.796C272.579 122.796 257.252 46.3127 249.814 58.3336C249.213 59.6108 248.762 60.6627 248.537 61.5642Z" fill="#259BDD"/>
<path opacity="0.8" d="M273.405 26.0272C272.278 26.6283 267.47 32.3382 262.361 39.1751C262.586 39.5508 262.662 39.701 262.662 39.701C256.2 58.5589 259.506 75.0877 269.348 92.6683C279.19 110.249 284.299 110.549 285.802 109.122C286.779 108.145 297.973 98.0026 303.157 86.9583C304.885 82.15 306.012 77.6421 305.486 75.1628C304.059 68.6264 275.885 24.8251 273.405 26.0272Z" fill="#C9FFFF"/>
<path d="M263.864 86.0561C263.113 83.3513 250.415 98.9034 250.491 101.007C250.566 103.186 252.895 129.407 252.895 129.407L271.377 124.298C271.377 124.298 267.47 136.995 268.372 135.567C269.273 134.14 279.115 116.559 279.115 116.559L272.429 122.87L263.864 86.0561Z" fill="#2582DD"/>
<path d="M261.835 42.2559C261.835 42.2559 257.929 66.8236 264.315 80.9483C270.701 95.0729 279.04 104.089 283.774 105.441C288.507 106.793 298.424 94.9977 298.424 94.9977C298.424 94.9977 292.263 103.938 285.802 109.197C279.341 114.457 275.434 120.167 275.434 120.167C275.434 120.167 279.867 112.578 280.017 111.301C280.167 110.024 272.128 98.2284 268.672 92.6687C265.216 87.109 269.724 110.4 269.724 110.4C269.724 110.4 262.361 76.2901 257.853 66.6734C253.346 57.0566 252.068 56.9815 252.068 56.9815C252.068 56.9815 255.825 59.0852 256.802 60.2873C257.628 61.4142 258.68 51.6472 261.835 42.2559Z" fill="#E0FFFF"/>
<path opacity="0.51" d="M257.252 91.3148C252.819 95.0713 274.532 128.58 271.602 118.738C268.596 108.971 263.938 85.9805 263.938 85.9805L257.252 91.3148Z" fill="#2582DD"/>
<path d="M259.356 51.195C257.478 60.4361 305.862 77.2654 305.862 77.2654C305.862 77.2654 281.144 32.5626 275.209 31.4356C269.273 30.3838 263.263 31.8113 259.356 51.195Z" fill="#E0FFFF"/>
<path d="M57.4307 35.0752C57.4307 35.0752 81.5477 74.9697 81.5477 77.7495C81.5477 80.5294 75.6123 123.955 75.6123 123.955C75.6123 123.955 60.2105 118.395 57.4307 114.113C54.6509 109.755 40.0754 78.1252 40.0754 73.3919C40.0003 68.6587 57.4307 35.0752 57.4307 35.0752Z" fill="url(#paint3_linear_230_3132)"/>
<path d="M66.6716 111.333C54.1247 113.662 45.7852 89.9957 49.5418 68.358C53.2983 46.7203 72.0059 62.5729 76.1381 75.4203C80.3454 88.2677 79.4438 108.929 66.6716 111.333Z" fill="#60DFFF"/>
<path d="M57.4307 114.113C60.2105 118.47 75.6123 123.955 75.6123 123.955C75.6123 123.955 81.5476 80.4542 81.5476 77.7495C81.5476 74.9697 57.4307 35.0752 57.4307 35.0752L72.8325 75.4205C72.7574 75.4205 60.1354 99.4623 57.4307 114.113Z" fill="#259BDD"/>
<path opacity="0.8" d="M40 73.3919C40 74.4437 40.6762 76.6225 41.728 79.5526C45.8602 87.3662 56.1531 96.3819 57.3552 93.9026C58.933 90.7471 64.1921 66.6301 62.9149 56.3372C61.6377 46.1194 57.3552 35 57.3552 35C57.3552 35 40 68.6586 40 73.3919Z" fill="#C9FFFF"/>
<path d="M72.758 75.4201C74.9367 75.345 76.8901 97.2081 76.5145 108.327C76.1388 119.447 75.5378 123.955 75.5378 123.955C75.5378 123.955 58.8588 116.742 59.1593 111.483C59.4598 106.224 72.758 75.4201 72.758 75.4201Z" fill="#2582DD"/>
<path d="M59.1581 40.9355C59.1581 40.9355 59.684 72.19 58.5571 79.4777C57.355 86.8405 56.7539 94.9546 56.7539 94.9546C56.7539 94.9546 62.6892 79.8533 63.14 62.9489C63.5908 46.1196 59.1581 40.9355 59.1581 40.9355Z" fill="#E0FFFF"/>
<path opacity="0.51" d="M67.347 86.5398C67.9481 81.5812 74.6347 121.025 69.4507 120.048C64.1916 119.071 56.979 114.488 59.1578 107.201C61.3366 99.9131 67.347 86.5398 67.347 86.5398Z" fill="#2582DD"/>
<defs>
<radialGradient id="paint0_radial_230_3132" cx="0" cy="0" r="1" gradientUnits="userSpaceOnUse" gradientTransform="translate(168 168) rotate(90) scale(234)">
<stop stop-color="#1FD2FF"/>
<stop offset="1" stop-color="#C1F0FF"/>
</radialGradient>
<linearGradient id="paint1_linear_230_3132" x1="173.932" y1="315.883" x2="177.693" y2="54.6935" gradientUnits="userSpaceOnUse">
<stop stop-color="#0085F7"/>
<stop offset="0.1648" stop-color="#0592F7"/>
<stop offset="0.4686" stop-color="#12B4F5"/>
<stop offset="0.8746" stop-color="#27EAF4"/>
<stop offset="1" stop-color="#2EFCF3"/>
</linearGradient>
<linearGradient id="paint2_linear_230_3132" x1="289.033" y1="131.802" x2="255.763" y2="31.9173" gradientUnits="userSpaceOnUse">
<stop stop-color="#0085F7"/>
<stop offset="0.1648" stop-color="#0592F7"/>
<stop offset="0.4686" stop-color="#12B4F5"/>
<stop offset="0.8746" stop-color="#27EAF4"/>
<stop offset="1" stop-color="#2EFCF3"/>
</linearGradient>
<linearGradient id="paint3_linear_230_3132" x1="60.7605" y1="123.968" x2="60.7605" y2="35.0578" gradientUnits="userSpaceOnUse">
<stop stop-color="#0085F7"/>
<stop offset="0.1648" stop-color="#0592F7"/>
<stop offset="0.4686" stop-color="#12B4F5"/>
<stop offset="0.8746" stop-color="#27EAF4"/>
<stop offset="1" stop-color="#2EFCF3"/>
</linearGradient>
</defs>
</svg>
