<svg width="336" height="336" viewBox="0 0 336 336" fill="none" xmlns="http://www.w3.org/2000/svg">
<rect width="336" height="336" fill="url(#paint0_radial_230_3129)"/>
<path d="M80.6554 139.479C80.6554 139.479 162.085 165.316 164.838 165.316C167.591 165.316 188.345 133.549 188.769 132.066C189.192 130.478 150.331 84.3102 144.93 83.1454C139.424 81.9806 85.7381 109.406 78.7494 117.242C71.6548 124.972 80.6554 139.479 80.6554 139.479Z" fill="url(#paint1_linear_230_3129)"/>
<path d="M86.5864 126.878C80.1271 103.477 142.496 83.5695 167.486 110.36C192.582 137.15 159.65 163.516 143.979 155.574C128.413 147.527 91.8808 145.938 86.5864 126.878Z" fill="#60DFFF"/>
<path d="M80.6559 139.478C80.6559 139.478 162.085 165.315 164.838 165.315C164.838 165.315 94.1039 108.982 80.4441 115.547C79.7029 116.182 79.1735 116.712 78.7499 117.135C78.3263 117.877 77.9028 118.512 77.4792 118.83C72.8201 126.877 80.6559 139.478 80.6559 139.478Z" fill="#259BDD"/>
<path opacity="0.8" d="M144.825 83.0404C143.872 82.8286 141.648 83.4639 138.471 84.6287C123.117 91.2997 110.41 122.431 116.446 128.467C122.482 134.503 163.249 159.069 171.826 155.151C172.885 154.622 173.944 153.986 174.897 153.139C180.933 144.668 187.392 134.503 188.451 132.385C188.557 132.173 188.557 132.067 188.557 132.067C189.086 130.479 150.331 84.2051 144.825 83.0404Z" fill="#C9FFFF"/>
<path d="M106.069 124.125C103.633 122.749 88.4912 141.703 88.4912 141.703L146.836 160.022C146.836 160.022 142.071 149.962 138.471 145.409C134.871 140.856 106.069 124.125 106.069 124.125Z" fill="#2582DD"/>
<path d="M131.377 90.9814C131.377 90.9814 118.035 108.241 123.859 124.125C129.683 140.008 156.261 150.174 162.297 150.386C168.332 150.597 182.31 142.126 182.31 142.126C182.31 142.126 172.992 154.621 168.544 155.468C164.097 156.315 119.2 133.549 114.858 126.243C110.623 119.042 131.377 90.9814 131.377 90.9814Z" fill="#E0FFFF"/>
<path d="M131.52 257.691C131.52 257.691 138.508 243.607 145.497 234.607C152.486 225.606 229.15 194.686 235.185 193.839C241.221 193.098 257.316 237.678 258.481 241.595C259.646 245.513 258.481 262.773 258.481 262.773C258.481 262.773 183.3 262.773 131.52 257.691Z" fill="url(#paint2_linear_230_3129)"/>
<path d="M152.169 250.911C142.744 236.934 194.418 207.285 222.797 207.179C251.069 207.073 263.247 245.829 247.046 254.406C230.845 262.983 161.381 264.677 152.169 250.911Z" fill="#60DFFF"/>
<path d="M258.483 262.773C258.483 262.773 259.647 245.513 258.483 241.595L252.023 253.984C252.023 253.984 239.74 241.912 234.234 238.842C228.728 235.665 194.208 209.616 145.392 234.5C138.404 243.501 131.415 257.584 131.415 257.584C183.301 262.773 258.483 262.773 258.483 262.773Z" fill="#259BDD"/>
<path opacity="0.8" d="M235.184 193.839C207.865 209.087 190.287 217.241 204.582 223.912C218.877 230.583 254.88 250.702 258.48 241.701C257.315 237.783 241.22 193.098 235.184 193.839Z" fill="#C9FFFF"/>
<path d="M186.372 223.91C183.089 223.804 189.972 261.078 189.972 261.078C189.972 261.078 247.999 262.772 248.952 262.772C250.011 262.772 252.023 254.089 252.023 254.089C252.023 254.089 226.504 225.605 186.372 223.91Z" fill="#2582DD"/>
<path d="M227.561 198.074C227.561 198.074 206.384 209.722 206.384 216.393C206.384 223.064 232.326 236.194 239.103 238.101C245.88 240.007 257.316 238.101 257.316 238.101L258.481 241.595C258.481 241.595 257.105 244.666 247.045 242.76C236.986 240.854 202.677 215.97 166.887 226.453C166.887 226.453 191.03 219.993 195.371 218.934C199.607 217.77 202.572 212.263 210.09 207.181C217.608 202.098 227.561 198.074 227.561 198.074Z" fill="#E0FFFF"/>
<path opacity="0.51" d="M193.784 224.229C188.595 223.594 222.268 255.784 232.434 256.843C242.599 257.902 248.211 254.09 244.505 248.584C240.693 243.183 227.245 228.041 193.784 224.229Z" fill="#2582DD"/>
<path opacity="0.51" d="M185.947 234.076C186.688 227.405 216.867 262.772 209.667 260.972C202.572 259.278 189.442 258.219 188.912 254.619C188.277 251.124 185.947 234.076 185.947 234.076Z" fill="#2582DD"/>
<defs>
<radialGradient id="paint0_radial_230_3129" cx="0" cy="0" r="1" gradientUnits="userSpaceOnUse" gradientTransform="translate(168 168) rotate(90) scale(168)">
<stop stop-color="#BEE8FF"/>
<stop offset="1" stop-color="#E5F4F9"/>
</radialGradient>
<linearGradient id="paint1_linear_230_3129" x1="132.342" y1="165.287" x2="132.342" y2="82.9931" gradientUnits="userSpaceOnUse">
<stop stop-color="#0085F7"/>
<stop offset="0.1648" stop-color="#0592F7"/>
<stop offset="0.4686" stop-color="#12B4F5"/>
<stop offset="0.8746" stop-color="#27EAF4"/>
<stop offset="1" stop-color="#2EFCF3"/>
</linearGradient>
<linearGradient id="paint2_linear_230_3129" x1="195.257" y1="262.82" x2="195.257" y2="193.871" gradientUnits="userSpaceOnUse">
<stop stop-color="#0085F7"/>
<stop offset="0.1648" stop-color="#0592F7"/>
<stop offset="0.4686" stop-color="#12B4F5"/>
<stop offset="0.8746" stop-color="#27EAF4"/>
<stop offset="1" stop-color="#2EFCF3"/>
</linearGradient>
</defs>
</svg>
