<svg width="336" height="336" viewBox="0 0 336 336" fill="none" xmlns="http://www.w3.org/2000/svg">
<rect width="336" height="336" fill="#2582DD"/>
<rect width="336" height="336" fill="url(#paint0_radial_230_3131)"/>
<path d="M152.462 248.517C152.462 248.517 106.63 243.281 102.51 241.65C98.3905 240.02 54.0179 200.797 50.3273 198.136C46.6368 195.475 47.3234 159.256 52.473 156.767C57.7085 154.364 80.9676 153.334 83.9715 155.308C86.9755 157.368 99.5921 178.31 99.5921 178.31C99.5921 178.31 90.4944 87.5909 95.3007 78.3215C100.107 69.0522 115.47 49.9128 117.187 47.0805C118.903 44.334 198.98 112.738 201.04 120.377C203.185 128.101 182.415 214.529 182.415 214.529C182.415 214.529 217.003 177.623 220.866 174.619C224.728 171.616 284.549 201.998 287.725 206.29C290.901 210.581 265.067 241.822 263.007 244.998C260.947 248.173 233.568 258.387 230.049 257.443C226.616 256.413 200.353 243.281 200.353 243.281C200.353 243.281 206.618 253.409 208.936 256.928C211.167 260.447 209.708 279.328 208.936 280.702C208.077 282.075 155.551 287.31 150.402 285.508C145.166 283.706 146.539 261.82 152.462 248.517Z" fill="url(#paint1_linear_230_3131)"/>
<path d="M54.1042 190.067C44.0624 161.487 78.9082 170.327 87.0618 176.421C95.1295 182.514 111.522 235.813 105.257 236.929C98.9059 238.044 60.0262 206.717 54.1042 190.067Z" fill="#60DFFF"/>
<path d="M140.102 241.48C118.131 246.801 98.3045 176.509 101.394 129.304C104.484 82.0131 137.184 92.7414 168.511 105.358C199.924 117.975 192.113 228.949 140.102 241.48Z" fill="#60DFFF"/>
<path d="M202.412 267.228C195.031 285.853 143.278 285.166 154.95 254.183C166.537 223.113 210.394 247.059 202.412 267.228Z" fill="#60DFFF"/>
<path d="M236.83 249.203C207.734 249.031 187.565 231.265 197.95 210.066C208.335 188.866 248.245 183.803 266.783 200.196C285.322 216.503 270.903 249.374 236.83 249.203Z" fill="#60DFFF"/>
<path d="M106.63 202.083C106.63 202.083 125.941 138.228 127.143 129.817C128.259 121.491 96.1593 75.1448 95.3869 78.2345C90.5806 87.5039 99.6782 178.223 99.6782 178.223C102.253 188.694 106.63 202.083 106.63 202.083Z" fill="#259BDD"/>
<path d="M201.725 245.428C200.953 244.141 200.438 243.282 200.438 243.282C200.438 243.282 226.615 256.5 230.134 257.444C233.567 258.474 260.946 248.175 263.091 244.999C265.151 241.823 290.985 210.668 287.81 206.291C276.137 208.523 264.379 223.542 264.379 223.542C264.379 223.542 222.838 235.816 221.208 234.356C219.577 232.897 194.773 206.72 182.5 214.445C182.5 214.616 167.566 219.423 201.725 245.428Z" fill="#259BDD"/>
<path d="M170.141 224.228C166.536 228.176 153.834 243.453 153.834 243.453C153.834 243.453 98.733 202.771 95.3 199.424C91.7811 195.991 48.7817 193.416 50.4124 198.137C54.103 200.797 98.4756 240.02 102.595 241.651C106.715 243.282 152.547 248.517 152.547 248.517C146.625 261.906 145.251 283.706 150.401 285.594C155.551 287.482 208.163 282.247 208.935 280.788C208.935 280.788 186.62 264.652 183.702 255.555C180.784 246.543 173.746 220.28 170.141 224.228Z" fill="#259BDD"/>
<path opacity="0.8" d="M49.8976 162.861C47.6661 177.623 61.0552 189.553 71.6119 193.072C82.1686 196.591 94.0986 198.308 95.386 196.849C96.4159 195.647 101.308 183.03 92.4678 166.981C90.5796 163.977 88.5198 161.059 86.8891 158.827C85.945 157.711 85.0009 156.596 83.971 155.48C80.967 153.42 57.7079 154.45 52.4725 156.939C51.5284 157.368 50.6701 159.085 49.9835 161.488C49.9835 161.831 49.9835 162.346 49.8976 162.861Z" fill="#C9FFFF"/>
<path opacity="0.8" d="M128.602 122.179C135.639 131.878 171.344 151.961 176.579 152.305C181.814 152.648 200.525 134.024 201.126 120.463C198.98 112.738 118.903 44.3343 117.273 47.1666C110.406 77.3777 121.478 112.481 128.602 122.179Z" fill="#C9FFFF"/>
<path opacity="0.8" d="M220.866 174.705C220.523 174.963 220.008 175.478 219.235 176.164C204.302 205.174 207.821 225.858 217.433 230.836C227.046 235.814 262.406 228.261 270.388 217.104C277.083 207.663 273.821 198.394 258.716 189.897C255.54 188.266 252.279 186.721 249.017 185.176C235.199 178.567 222.583 173.418 220.866 174.705Z" fill="#C9FFFF"/>
<path opacity="0.8" d="M183.702 255.554C186.963 266.282 210.136 265.853 209.621 258.901C209.621 258.816 204.214 249.546 198.807 244.826C193.314 240.105 176.149 220.022 173.831 220.794C171.514 221.652 180.354 244.826 183.702 255.554Z" fill="#6ED3FF"/>
<path d="M57.7087 204.316C53.8465 200.282 128.259 234.098 134.438 236.759C140.618 239.505 152.462 248.517 152.462 248.517C152.462 248.517 106.716 243.539 100.708 239.677C94.7001 235.815 57.7087 204.316 57.7087 204.316Z" fill="#2582DD"/>
<path d="M94.6154 114.112C94.4437 107.932 114.356 176.594 112.124 183.803C109.978 191.013 106.631 202.17 106.631 202.17L99.6792 178.396C99.6792 178.396 95.2162 134.367 94.6154 114.112Z" fill="#2582DD"/>
<path d="M199.581 133.853C200.01 131.106 180.785 149.731 176.751 158.657C172.632 167.583 153.835 243.54 153.835 243.54L152.462 248.518C152.462 248.518 145.339 278.9 149.63 282.419C154.007 285.938 181.987 250.578 181.214 248.089C180.356 245.6 173.833 220.881 173.833 220.881C173.833 220.881 173.147 219.508 178.64 224.314C184.132 229.035 200.268 241.737 202.328 243.025C204.302 244.312 226.359 255.813 228.162 256.757C230.05 257.701 221.725 233.927 217.433 231.009C213.056 228.091 197.693 214.273 182.502 214.788C182.502 214.616 197.178 149.645 199.581 133.853Z" fill="#2582DD"/>
<path d="M50.0705 170.07C50.0705 170.07 61.6572 188.266 70.7548 191.87C79.8525 195.475 92.7266 192.471 95.2155 190.497C97.6187 188.609 96.2455 175.735 96.2455 175.735C96.2455 175.735 98.9061 185.176 97.1037 192.3C95.3014 199.423 111.952 212.297 111.952 212.297C111.952 212.297 94.2714 199.423 93.4132 198.737C92.6407 198.05 65.6052 194.274 58.2241 195.733C50.843 197.192 59.1682 194.703 61.4855 190.926C63.8887 187.15 56.9367 184.318 52.6453 178.31C48.354 172.302 50.0705 170.07 50.0705 170.07Z" fill="#E0FFFF"/>
<path d="M115.126 68.1943C115.126 68.1943 118.645 94.5432 129.03 113.168C139.415 131.792 156.924 143.379 165.507 144.752C174.09 146.125 190.998 138.058 192.371 136.856C193.658 135.654 201.211 124.84 201.211 124.84C201.211 124.84 198.55 133.337 190.826 140.976C183.101 148.614 178.038 155.395 176.836 158.656C175.634 161.917 158.04 227.146 158.04 227.146C158.04 227.146 157.439 207.921 159.156 204.059C160.786 200.196 174.09 170.329 172.373 162.776C170.657 155.223 155.98 143.293 145.681 135.998C135.467 128.702 127.571 139.86 125.512 144.495C123.452 149.129 116.5 180.37 114.44 185.262C112.38 190.155 108.26 197.536 108.26 197.536C108.26 197.536 127.571 137.457 127.228 129.99C126.885 122.609 107.145 92.0543 102.596 86.218C102.596 86.218 120.448 109.82 122.851 111.88C122.679 111.794 116.242 100.379 115.126 68.1943Z" fill="#E0FFFF"/>
<path d="M175.634 227.748C175.634 227.748 182.843 249.119 186.534 254.354C190.224 259.504 193.228 261.306 196.318 262.594C199.494 263.881 209.535 258.903 209.535 258.903C209.535 258.903 208.935 263.023 203.871 263.452C198.807 263.881 191.769 264.482 191.683 264.568C191.598 264.654 195.632 271.005 199.408 271.606C203.184 272.206 206.532 278.901 206.532 278.901C206.532 278.901 195.975 271.091 189.28 263.71C182.586 256.328 183.959 255.728 180.011 243.626C176.063 231.696 175.634 227.748 175.634 227.748Z" fill="#E0FFFF"/>
<path d="M214.687 186.206C214.687 186.206 207.821 202.857 212.713 216.503C217.605 230.15 226.445 231.523 232.625 231.437C238.804 231.265 256.399 227.403 265.325 218.563C274.251 209.723 270.303 199.252 270.303 199.252C270.303 199.252 274.508 204.831 273.564 208.95C272.62 212.984 277.341 211.268 277.341 211.268C277.341 211.268 268.329 219.593 264.209 223.712C260.175 227.832 261.892 239.59 261.892 239.59C261.892 239.59 259.918 227.403 259.489 226.631C258.974 225.858 230.479 234.098 227.647 234.698C224.814 235.299 227.904 251.864 227.904 251.864C227.904 251.864 221.553 235.986 218.292 231.78C215.03 227.661 196.749 215.988 189.11 215.13C189.11 215.13 199.753 216.417 202.757 218.048C205.761 219.679 210.825 223.198 210.825 222.768C210.739 222.425 207.821 217.275 209.709 203.286C211.683 189.296 214.687 186.206 214.687 186.206Z" fill="#E0FFFF"/>
<path opacity="0.51" d="M201.639 220.108C198.55 218.477 212.797 248.173 216.316 250.491C219.921 252.808 227.903 257.271 228.16 256.67C228.418 256.069 223.096 239.676 218.891 235.127C214.685 230.493 201.639 220.108 201.639 220.108Z" fill="#2582DD"/>
<path opacity="0.51" d="M157.268 278.041C155.808 279.414 174.519 228.261 176.664 234.012C178.81 239.848 181.385 248.774 179.84 251.177C178.209 253.58 163.876 271.861 157.268 278.041Z" fill="#2582DD"/>
<path opacity="0.51" d="M88.7781 216.503C85.0017 214.873 117.702 242.337 124.396 244.14C131.005 245.942 149.372 246.2 147.741 245.084C146.196 243.968 137.185 238.904 121.221 230.922C105.171 222.855 88.7781 216.503 88.7781 216.503Z" fill="#2582DD"/>
<path opacity="0.51" d="M104.569 145.524C102.338 140.803 102.08 175.907 102.338 182.601C102.595 189.296 107.058 200.968 107.058 200.968C107.058 200.968 111.607 186.549 112.208 183.803C112.809 181.056 107.144 151.017 104.569 145.524Z" fill="#2582DD"/>
<path opacity="0.51" d="M169.112 185.777C166.451 200.968 197.95 132.993 193.83 137.542C189.625 142.005 178.553 152.305 176.751 158.57C174.862 164.921 169.112 185.777 169.112 185.777Z" fill="#2582DD"/>
<path d="M121.393 71.3693C120.792 80.7244 195.805 116.686 195.805 116.686C195.805 116.686 174.863 92.4827 151.089 73C127.315 53.5172 119.419 47.9385 119.419 47.9385L121.393 71.3693Z" fill="#E0FFFF"/>
<path d="M214.428 201.484C215.372 210.067 269.357 202.514 269.357 202.514C269.357 202.514 256.312 183.89 234.855 178.74C213.484 173.676 214.428 201.484 214.428 201.484Z" fill="#E0FFFF"/>
<path d="M264.295 223.712C259.231 229.119 262.921 245.169 262.921 245.169C262.921 245.169 290.815 208.864 287.639 206.461C284.636 204.058 269.101 218.562 264.295 223.712Z" fill="#2582DD"/>
<path opacity="0.51" d="M261.719 231.437C261.89 228.777 283.519 214.1 281.631 216.932C279.742 219.765 262.92 245.77 262.32 241.736C261.719 237.703 261.719 231.437 261.719 231.437Z" fill="#2582DD"/>
<defs>
<radialGradient id="paint0_radial_230_3131" cx="0" cy="0" r="1" gradientUnits="userSpaceOnUse" gradientTransform="translate(168 168) rotate(90) scale(236)">
<stop stop-color="#60F0FB"/>
<stop offset="1" stop-color="#E5F4F9"/>
</radialGradient>
<linearGradient id="paint1_linear_230_3131" x1="241.984" y1="264.669" x2="75.7898" y2="85.6172" gradientUnits="userSpaceOnUse">
<stop stop-color="#0085F7"/>
<stop offset="0.1648" stop-color="#0592F7"/>
<stop offset="0.4686" stop-color="#12B4F5"/>
<stop offset="0.8746" stop-color="#27EAF4"/>
<stop offset="1" stop-color="#2EFCF3"/>
</linearGradient>
</defs>
</svg>
