<svg width="266" height="290" viewBox="0 0 266 290" fill="none" xmlns="http://www.w3.org/2000/svg">
<path d="M193.17 240.649C193.17 240.649 227.857 171.778 227.929 169.121C228.001 166.536 190.441 110.304 189.149 110.304C187.856 110.304 167.101 162.37 166.383 166.966C165.665 171.563 162.433 190.45 162.433 190.45C162.433 190.45 154.39 90.1962 153.816 86.2464C153.241 82.2966 93.132 28.4353 91.7675 28.0763C90.4748 27.7172 77.2609 59.603 77.1891 63.5529C77.1173 67.5027 43.5796 191.096 43.5796 194.687C43.5078 198.278 49.6121 209.194 50.5457 209.84C51.5511 210.486 70.5103 230.738 70.5103 230.738C70.5103 230.738 44.0105 251.636 42.6461 254.868C41.2816 258.1 42.5024 267.292 42.5024 267.292C42.5024 267.292 73.5983 288.693 75.8964 289.052C78.1945 289.411 101.463 286.179 101.463 286.179C101.463 286.179 101.247 279.285 110.08 278.136C118.914 276.987 155.036 268.944 155.036 268.944C155.036 268.944 197.551 273.827 199.777 273.827C202.075 273.827 211.555 252.067 211.268 250.415C211.052 248.764 193.17 240.649 193.17 240.649Z" fill="url(#paint0_linear_232_3176)"/>
<path d="M203.297 175.223C197.839 181.256 193.171 240.647 193.171 240.647C193.171 240.647 227.858 171.776 227.929 169.119C227.929 169.119 208.827 169.191 203.297 175.223Z" fill="#259BDD"/>
<path d="M89.3259 284.527C125.449 280.936 106.992 241.654 88.8232 236.196C70.654 230.666 46.2369 255.155 48.894 264.06C51.4076 272.965 65.9142 286.897 89.3259 284.527Z" fill="#60DFFF"/>
<path d="M144.84 263.198C159.203 260.757 163.225 171.993 145.558 117.486C127.892 62.9064 84.8746 83.8045 66.4181 136.66C47.9617 189.516 62.8992 210.342 90.2607 219.535C117.622 228.727 125.378 266.574 144.84 263.198Z" fill="#60DFFF"/>
<path d="M161.357 265.927C153.17 259.894 170.406 239.786 189.006 246.034C207.606 252.282 202.292 265.999 189.58 267.938C176.869 269.877 167.82 270.667 161.357 265.927Z" fill="#60DFFF"/>
<path d="M169.185 233.251C161.932 231.384 166.816 156.983 184.626 142.979C202.436 128.904 215.362 144.918 215.434 170.341C215.578 195.62 198.127 240.791 169.185 233.251Z" fill="#60DFFF"/>
<path d="M101.536 286.106C101.536 286.106 101.321 279.212 110.154 278.063C118.987 276.914 155.11 268.871 155.11 268.871C155.11 268.871 197.625 273.754 199.851 273.754C202.149 273.754 211.629 251.994 211.341 250.342C211.341 250.342 190.73 261.186 180.892 261.043C171.053 260.899 163.513 247.541 163.513 247.541L181.251 237.487C181.251 237.487 180.676 210.988 181.107 202.657C181.466 194.327 167.103 164.667 167.103 164.667C166.744 165.744 166.529 166.534 166.457 166.965C165.739 171.561 162.507 190.449 162.507 190.449C162.507 190.449 162.435 189.515 162.292 187.791C160.353 212.998 154.967 257.237 154.967 261.186C154.895 265.136 121.357 209.623 115.899 207.253C110.513 204.883 52.9175 185.062 43.6534 194.614C43.5816 198.205 49.6859 209.12 50.6195 209.767C51.6249 210.413 70.584 230.665 70.584 230.665C70.584 230.665 97.4428 230.378 99.8845 230.306C102.326 230.234 117.479 269.517 117.479 269.517C117.479 269.517 88.1787 256.303 73.9593 256.806C59.74 257.237 42.5762 267.291 42.5762 267.291C42.5762 267.291 73.6721 288.691 75.9701 289.051C78.2682 289.41 101.536 286.106 101.536 286.106Z" fill="#259BDD"/>
<path opacity="0.8" d="M91.8404 28.003C90.5477 27.6439 77.3338 59.5298 77.2619 63.4796C77.1901 66.7113 54.4966 150.95 46.4533 182.692C45.3043 187.145 61.0317 192.531 67.6387 193.537C74.2457 194.542 153.889 86.2449 153.889 86.2449C153.242 82.2951 93.133 28.3621 91.8404 28.003Z" fill="#C9FFFF"/>
<path opacity="0.8" d="M64.9814 256.59C82.4324 251.42 99.8835 230.234 99.8835 230.234L70.583 230.593C70.583 230.593 44.0832 251.492 42.7188 254.723C42.7188 254.867 47.5304 261.761 64.9814 256.59Z" fill="#6ED3FF"/>
<path opacity="0.8" d="M181.25 237.488C181.25 237.488 169.329 244.239 168.539 247.614C167.749 250.99 180.891 261.044 184.697 260.397C188.504 259.751 209.617 248.907 202.436 245.029C201.718 244.67 200.928 244.311 200.209 243.952C192.741 240.505 181.25 237.488 181.25 237.488Z" fill="#6ED3FF"/>
<path opacity="0.8" d="M170.406 155.333C169.185 165.602 177.085 187.578 181.106 199.571C185.2 211.564 201.789 178.098 203.01 168.762C204.231 159.426 205.093 137.379 189.15 110.305C188.216 110.305 176.654 138.672 170.406 155.333Z" fill="#C9FFFF"/>
<path d="M101.607 285.46C101.607 285.46 75.8254 257.883 84.2996 259.032C92.702 260.181 117.047 268.727 118.843 270.379C120.638 272.031 134.283 269.23 134.283 269.23C134.283 269.23 109.794 202.586 116.975 209.839C124.157 217.092 153.745 262.767 156.402 266.07C159.059 269.374 119.345 274.76 108.573 278.063C97.8726 281.295 101.607 285.46 101.607 285.46Z" fill="#2582DD"/>
<path d="M48.6789 270.739C45.8063 268.728 86.0944 288.19 86.0944 288.19L75.9685 289.051C75.9685 289.051 60.3129 278.925 48.6789 270.739Z" fill="#2582DD"/>
<path d="M159.202 269.231C159.13 268.297 160.351 246.106 162.434 247.542C164.517 248.979 176.725 263.629 177.156 265.065C177.659 266.573 178.52 270.667 178.52 270.667L186.133 270.81C186.133 270.81 190.801 259.464 195.828 257.381C200.855 255.37 210.55 251.636 210.55 251.636C210.55 251.636 201.717 271.744 199.778 272.893C197.767 274.114 159.202 269.231 159.202 269.231Z" fill="#2582DD"/>
<path d="M166.814 245.675C166.814 245.675 174.714 182.908 176.653 186.499C178.592 190.162 181.177 200.934 181.106 202.586C181.034 204.237 181.249 237.416 181.249 237.416L166.814 245.675Z" fill="#2582DD"/>
<path d="M153.815 86.2461C153.815 86.2461 132.199 132.998 129.398 142.19C126.526 151.382 156.616 248.979 156.616 248.979L171.841 175.081L167.029 164.668L162.433 190.45L153.815 86.2461Z" fill="#2582DD"/>
<path d="M50.6191 209.769C50.9064 206.393 99.8842 230.308 99.8842 230.308L70.5837 230.667L50.6191 209.769Z" fill="#2582DD"/>
<path d="M92.6307 34.3955C92.6307 34.3955 129.759 83.7324 132.201 93.7147C134.642 103.697 60.2421 156.553 58.6622 149.443C57.0104 142.262 75.7541 71.0211 82.3611 57.3045C88.8245 43.7315 92.6307 34.3955 92.6307 34.3955Z" fill="#E0FFFF"/>
<path d="M175.289 154.686C173.422 164.524 192.237 183.986 197.767 179.605C203.297 175.225 203.512 146.427 197.408 130.197C191.232 113.967 183.835 109.514 175.289 154.686Z" fill="#E0FFFF"/>
<path d="M148.502 91.4883C148.502 91.4883 105.556 155.116 64.7655 179.893C58.2303 183.842 47.3145 185.207 47.3145 185.207C47.3145 185.207 50.6897 189.731 67.6381 193.537C84.5864 197.344 112.163 205.746 116.831 207.972C121.571 210.127 139.094 239.14 139.094 239.14C139.094 239.14 120.135 203.663 117.98 201.222C115.826 198.78 125.377 203.232 99.1649 198.995C72.9524 194.758 74.4605 188.079 78.4822 183.196C82.5038 178.313 112.522 143.411 116.329 141.256C120.135 139.102 124.731 142.621 126.167 144.129C127.604 145.637 131.338 178.313 132.99 181.76C134.641 185.207 142.972 202.658 142.972 202.658C142.972 202.658 130.189 152.244 129.184 143.411C127.388 127.252 148.502 91.4883 148.502 91.4883Z" fill="#E0FFFF"/>
<path d="M42.7188 254.866C42.7188 254.866 62.396 254.292 71.1575 251.563C79.9189 248.906 98.6626 231.67 98.6626 231.67C98.6626 231.67 83.7251 248.762 79.4162 250.701C75.1073 252.64 98.2317 261.976 98.2317 261.976C98.2317 261.976 84.0841 256.231 72.3065 256.518C60.5288 256.877 46.094 265.279 46.094 265.279C46.094 265.279 57.369 258.529 55.2145 258.529C53.1319 258.601 45.9504 258.313 42.7188 254.866Z" fill="#E0FFFF"/>
<path d="M192.381 116.12C192.381 116.12 199.778 143.194 198.916 161.148C197.983 179.174 195.9 189.515 188.144 191.813C180.388 194.111 174.499 181.184 174.499 181.184C174.499 181.184 179.095 192.1 180.101 197.343C181.106 202.585 181.178 232.819 181.178 232.819C181.178 232.819 182.327 202.226 183.117 202.154C183.907 202.011 186.636 203.734 191.95 194.183C197.264 184.56 193.315 231.311 193.315 231.311C193.315 231.311 200.496 177.594 202.291 175.511C204.087 173.357 218.881 169.766 218.881 169.766C218.881 169.766 205.164 169.981 204.949 168.832C204.805 167.683 204.374 153.895 201.142 139.532C197.983 125.169 192.381 116.12 192.381 116.12Z" fill="#E0FFFF"/>
<path d="M169.257 249.912C169.257 249.912 179.455 255.011 185.559 256.232C191.663 257.525 203.369 248.691 203.369 248.691C203.369 248.691 191.376 258.889 186.133 259.966C180.963 261.044 175.002 256.017 169.257 249.912Z" fill="#E0FFFF"/>
<path d="M228.071 112.799C220.032 112.198 212.97 103.407 212.97 103.407C212.97 103.407 206.058 44.2794 208.537 35.5642C211.016 26.9242 230.926 1.30456 233.405 0.0273339C235.885 -1.24989 264.059 42.6265 265.486 49.1629C266.914 55.6993 256.846 76.3603 254.968 78.2385C253.014 80.1168 228.071 112.799 228.071 112.799Z" fill="url(#paint1_linear_232_3176)"/>
<path d="M224.389 107.539C206.883 100.401 206.733 53.7449 219.355 33.7601C231.977 13.7753 254.291 37.6669 256.921 52.4676C259.55 67.2684 233.254 111.22 224.389 107.539Z" fill="#60DFFF"/>
<path d="M208.537 35.5642C206.058 44.2043 212.97 103.407 212.97 103.407C212.97 103.407 220.032 112.198 228.071 112.799C228.071 112.799 253.089 80.1168 254.968 78.2386C257.973 68.9223 232.579 96.7959 232.579 96.7959C232.579 96.7959 217.252 20.3127 209.814 32.3336C209.213 33.6108 208.762 34.6627 208.537 35.5642Z" fill="#259BDD"/>
<path opacity="0.8" d="M233.405 0.0272114C232.278 0.628258 227.47 6.3382 222.361 13.1751C222.586 13.5508 222.662 13.701 222.662 13.701C216.2 32.5589 219.506 49.0877 229.348 66.6683C239.19 84.2489 244.299 84.5494 245.802 83.1219C246.779 82.1452 257.973 72.0026 263.157 60.9583C264.885 56.15 266.012 51.6421 265.486 49.1628C264.059 42.6264 235.885 -1.17488 233.405 0.0272114Z" fill="#C9FFFF"/>
<path d="M223.864 60.0561C223.113 57.3513 210.415 72.9034 210.491 75.0071C210.566 77.1859 212.895 103.407 212.895 103.407L231.377 98.2977C231.377 98.2977 227.47 110.995 228.372 109.567C229.273 108.14 239.115 90.5592 239.115 90.5592L232.429 96.8702L223.864 60.0561Z" fill="#2582DD"/>
<path d="M221.835 16.2559C221.835 16.2559 217.929 40.8236 224.315 54.9483C230.701 69.0729 239.04 78.0886 243.774 79.4409C248.507 80.7933 258.424 68.9977 258.424 68.9977C258.424 68.9977 252.263 77.9383 245.802 83.1975C239.341 88.4566 235.434 94.1666 235.434 94.1666C235.434 94.1666 239.867 86.5783 240.017 85.3011C240.167 84.0239 232.128 72.2284 228.672 66.6687C225.216 61.109 229.724 84.3995 229.724 84.3995C229.724 84.3995 222.361 50.2901 217.853 40.6734C213.346 31.0566 212.068 30.9815 212.068 30.9815C212.068 30.9815 215.825 33.0852 216.802 34.2873C217.628 35.4142 218.68 25.6472 221.835 16.2559Z" fill="#E0FFFF"/>
<path opacity="0.51" d="M217.252 65.3148C212.819 69.0713 234.532 102.58 231.602 92.7375C228.596 82.9705 223.938 59.9805 223.938 59.9805L217.252 65.3148Z" fill="#2582DD"/>
<path d="M219.356 25.195C217.478 34.4361 265.862 51.2654 265.862 51.2654C265.862 51.2654 241.144 6.56259 235.209 5.43563C229.273 4.3838 223.263 5.81129 219.356 25.195Z" fill="#E0FFFF"/>
<path d="M17.4307 9.0752C17.4307 9.0752 41.5477 48.9697 41.5477 51.7495C41.5477 54.5294 35.6123 97.955 35.6123 97.955C35.6123 97.955 20.2105 92.3953 17.4307 88.1129C14.6509 83.7553 0.0754375 52.1252 0.0754375 47.3919C0.000306639 42.6587 17.4307 9.0752 17.4307 9.0752Z" fill="url(#paint2_linear_232_3176)"/>
<path d="M26.6716 85.3328C14.1247 87.6619 5.78523 63.9957 9.54177 42.358C13.2983 20.7203 32.0059 36.5729 36.1381 49.4203C40.3454 62.2677 39.4438 82.9287 26.6716 85.3328Z" fill="#60DFFF"/>
<path d="M17.4307 88.1129C20.2105 92.4704 35.6123 97.955 35.6123 97.955C35.6123 97.955 41.5476 54.4542 41.5476 51.7495C41.5476 48.9697 17.4307 9.0752 17.4307 9.0752L32.8325 49.4205C32.7574 49.4205 20.1354 73.4623 17.4307 88.1129Z" fill="#259BDD"/>
<path opacity="0.8" d="M0 47.3919C0 48.4437 0.676169 50.6225 1.728 53.5526C5.8602 61.3662 16.1531 70.3819 17.3552 67.9026C18.933 64.7471 24.1921 40.6301 22.9149 30.3372C21.6377 20.1194 17.3552 9 17.3552 9C17.3552 9 0 42.6586 0 47.3919Z" fill="#C9FFFF"/>
<path d="M32.758 49.4201C34.9367 49.345 36.8901 71.2081 36.5145 82.3274C36.1388 93.4468 35.5378 97.9546 35.5378 97.9546C35.5378 97.9546 18.8588 90.7421 19.1593 85.4829C19.4598 80.2238 32.758 49.4201 32.758 49.4201Z" fill="#2582DD"/>
<path d="M19.1581 14.9355C19.1581 14.9355 19.684 46.19 18.5571 53.4777C17.355 60.8405 16.7539 68.9546 16.7539 68.9546C16.7539 68.9546 22.6892 53.8533 23.14 36.9489C23.5908 20.1196 19.1581 14.9355 19.1581 14.9355Z" fill="#E0FFFF"/>
<path opacity="0.51" d="M27.347 60.5398C27.9481 55.5812 34.6347 95.0249 29.4507 94.0482C24.1916 93.0715 16.979 88.4885 19.1578 81.2008C21.3366 73.9131 27.347 60.5398 27.347 60.5398Z" fill="#2582DD"/>
<defs>
<linearGradient id="paint0_linear_232_3176" x1="133.932" y1="289.883" x2="137.693" y2="28.6935" gradientUnits="userSpaceOnUse">
<stop stop-color="#0085F7"/>
<stop offset="0.1648" stop-color="#0592F7"/>
<stop offset="0.4686" stop-color="#12B4F5"/>
<stop offset="0.8746" stop-color="#27EAF4"/>
<stop offset="1" stop-color="#2EFCF3"/>
</linearGradient>
<linearGradient id="paint1_linear_232_3176" x1="249.033" y1="105.802" x2="215.763" y2="5.91733" gradientUnits="userSpaceOnUse">
<stop stop-color="#0085F7"/>
<stop offset="0.1648" stop-color="#0592F7"/>
<stop offset="0.4686" stop-color="#12B4F5"/>
<stop offset="0.8746" stop-color="#27EAF4"/>
<stop offset="1" stop-color="#2EFCF3"/>
</linearGradient>
<linearGradient id="paint2_linear_232_3176" x1="20.7605" y1="97.9684" x2="20.7605" y2="9.05777" gradientUnits="userSpaceOnUse">
<stop stop-color="#0085F7"/>
<stop offset="0.1648" stop-color="#0592F7"/>
<stop offset="0.4686" stop-color="#12B4F5"/>
<stop offset="0.8746" stop-color="#27EAF4"/>
<stop offset="1" stop-color="#2EFCF3"/>
</linearGradient>
</defs>
</svg>
