<svg width="336" height="336" viewBox="0 0 336 336" fill="none" xmlns="http://www.w3.org/2000/svg">
<rect width="336" height="336" fill="url(#paint0_radial_230_3130)"/>
<path d="M45.3799 270.239C45.3799 270.239 37.7831 257.787 37.0782 256.064C36.3734 254.341 73.6526 214.321 76.0804 212.911C78.5082 211.501 127.848 255.751 128.553 257.474C129.258 259.197 131.999 264.365 131.999 264.365L143.355 262.642C143.355 262.642 140.614 219.176 143.355 210.875C146.096 202.573 191.364 84.5482 191.677 83.1385C191.99 81.7288 212.04 91.4402 213.763 95.9043C215.486 100.368 248.614 172.734 249.319 176.65C250.024 180.487 226.215 226.46 226.215 226.46C226.215 226.46 257.307 195.054 260.049 194.35C262.79 193.645 277.278 205.706 279.706 206.41C282.134 207.115 304.925 235.78 305.943 238.207C306.961 240.635 292.472 253.714 292.472 253.714L216.974 263.034C216.974 263.034 193.165 285.511 190.033 287.234C186.9 288.957 140.692 287.234 140.692 287.234L133.096 271.022C133.096 271.022 79.918 272.041 77.1768 272.041C74.3574 271.962 45.3799 270.239 45.3799 270.239Z" fill="url(#paint1_linear_230_3130)"/>
<path d="M77.0986 271.963C79.8397 271.963 133.017 270.945 133.017 270.945L140.614 287.157C140.614 287.157 186.9 288.88 189.954 287.157C193.087 285.434 216.896 262.956 216.896 262.956L292.472 253.637C292.472 253.637 306.961 240.558 305.943 238.13C276.965 217.062 259.03 254.341 254.175 254.733C249.319 255.046 223.788 252.305 225.197 247.841C226.607 243.377 245.638 207.194 260.049 194.35C257.307 195.055 226.215 226.46 226.215 226.46C226.215 226.46 250.024 180.566 249.319 176.65C249.319 176.65 207.184 239.853 199.587 247.841C191.991 255.751 158.862 281.361 157.453 279.012C156.043 276.662 146.41 202.339 143.277 210.875C140.536 219.177 143.277 262.643 143.277 262.643L131.921 264.366C131.921 264.366 129.18 259.197 128.475 257.474C128.475 257.474 78.7433 232.961 68.797 236.955C58.8506 240.949 37 256.064 37 256.064C37.7049 257.787 45.3017 270.24 45.3017 270.24C45.3017 270.24 74.3575 271.963 77.0986 271.963Z" fill="#259BDD"/>
<path d="M60.6523 268.203C26.9757 251.365 62.9235 224.972 80.4667 225.364C98.0098 225.755 130.277 261.233 112.029 264.522C93.7807 267.734 69.8938 272.824 60.6523 268.203Z" fill="#60DFFF"/>
<path d="M153.615 284.414C145.157 283.553 132 228.26 162.857 176.649C193.714 125.038 206.715 98.1748 225.903 140.623C245.09 183.071 233.029 212.284 215.173 238.128C197.395 264.052 180.792 287.312 153.615 284.414Z" fill="#60DFFF"/>
<path d="M223.631 255.437C208.985 253.793 232.872 220.351 253.078 208.838C273.362 197.326 296.466 222.622 294.508 238.208C292.55 253.714 261.38 259.667 223.631 255.437Z" fill="#60DFFF"/>
<path opacity="0.8" d="M244.384 164.432C234.908 142.66 215.172 99.3503 213.84 95.9043C212.118 91.4402 192.068 81.7288 191.755 83.1385C191.755 83.1385 185.568 161.534 184.158 180.801C182.748 200.145 197.472 251.208 202.876 243.925C208.28 236.641 242.113 183.228 243.836 169.758C244.071 167.878 244.306 166.155 244.384 164.432Z" fill="#C9FFFF"/>
<path opacity="0.8" d="M279.785 206.411C277.357 205.706 262.868 193.645 260.127 194.35C251.826 208.134 269.682 228.575 282.213 230.611C294.744 232.647 301.557 232.334 306.021 238.208C305.003 235.78 282.213 207.116 279.785 206.411Z" fill="#6ED3FF"/>
<path opacity="0.8" d="M126.595 255.438C117.354 246.432 78.1949 211.737 76.0803 212.99C69.1884 226.461 65.1159 234.214 83.9121 238.992C102.63 243.691 126.595 255.36 126.595 255.438Z" fill="#6ED3FF"/>
<path d="M101.848 271.571C101.848 271.571 88.2203 239.852 83.9128 238.991C79.527 238.129 73.6532 234.84 68.8758 237.033C64.0984 239.226 56.2667 271.023 58.6162 271.258C60.8874 271.493 69.424 272.198 77.1775 272.041C84.8526 271.884 101.848 271.571 101.848 271.571Z" fill="#2582DD"/>
<path d="M131.999 264.365C137.56 263.581 143.355 262.642 143.355 262.642L146.018 287.312L140.614 287.155C140.614 287.155 134.505 275.956 133.017 270.943C131.529 265.853 131.999 264.365 131.999 264.365Z" fill="#2582DD"/>
<path d="M199.666 247.84C202.172 245.647 215.799 262.72 215.799 262.72C215.799 262.72 193.479 285.041 190.033 287.234C186.587 289.427 148.838 279.715 157.609 279.01C166.302 278.306 199.666 247.84 199.666 247.84Z" fill="#2582DD"/>
<path d="M226.294 226.46C222.065 231.629 215.8 255.438 215.8 255.438C215.8 255.438 219.559 255.281 229.897 238.208C240.235 221.056 250.964 202.182 250.964 202.182L226.294 226.46Z" fill="#2582DD"/>
<path d="M255.114 256.769C255.114 256.769 268.663 237.895 279.079 234.214C289.417 230.455 292.55 253.715 292.55 253.715C292.55 253.715 254.017 259.354 255.114 256.769Z" fill="#2582DD"/>
<path opacity="0.51" d="M163.484 276.349C158.785 279.717 215.095 264.288 211.727 259.119C208.36 253.95 203.739 247.215 201.311 247.841C198.805 248.625 163.484 276.349 163.484 276.349Z" fill="#2582DD"/>
<path opacity="0.51" d="M227.312 225.365C224.884 227.793 222.456 248.547 225.745 244.631C229.035 240.715 250.964 203.749 250.964 203.749C250.964 203.749 232.559 220.039 227.312 225.365Z" fill="#2582DD"/>
<path opacity="0.51" d="M258.327 252.619C255.429 255.909 289.105 236.564 284.955 235.155C280.804 233.823 277.593 230.691 258.327 252.619Z" fill="#2582DD"/>
<path opacity="0.51" d="M86.8096 241.811C84.93 239.853 80.8575 271.963 83.1287 271.885C85.3999 271.806 101.847 271.571 101.847 271.571C101.847 271.571 91.7436 246.901 86.8096 241.811Z" fill="#2582DD"/>
<path opacity="0.51" d="M72.1644 236.249C73.6524 236.406 57.1274 272.823 58.6154 265.853C60.0251 258.883 64.2543 235.309 72.1644 236.249Z" fill="#2582DD"/>
<path d="M75.6102 213.85C75.6102 213.85 72.3208 226.929 74.9053 231.314C77.4898 235.7 118.293 247.683 118.293 247.683L126.595 255.436C126.595 255.436 80.9358 235.935 73.8872 236.248C66.8386 236.562 41.9336 252.852 41.9336 252.852C41.9336 252.852 65.7422 234.525 67.5435 232.333C69.4231 230.14 71.3027 220.428 75.6102 213.85Z" fill="#E0FFFF"/>
<path d="M191.599 85.2529C191.599 85.2529 196.219 140.075 194.105 143.991C191.99 147.907 185.255 176.65 186.038 191.138C186.821 205.627 203.346 231.864 207.497 231.315C211.57 230.767 234.908 192.313 234.908 192.313C234.908 192.313 206.557 240.244 201.623 245.569C196.689 250.895 177.345 265.54 177.345 265.54C177.345 265.54 192.538 249.172 193.791 245.569C195.045 241.967 180.556 205.392 184.785 173.125C188.857 140.937 191.599 85.2529 191.599 85.2529Z" fill="#E0FFFF"/>
<path d="M229.896 238.129C229.896 238.129 250.963 208.447 254.017 205.862C257.072 203.278 258.325 206.646 259.108 208.604C259.891 210.64 266.392 222.231 271.717 225.52C277.043 228.81 262.162 246.744 262.162 246.744C262.162 246.744 273.283 235.075 279.627 233.039C285.971 231.002 296.152 232.647 299.833 233.665C303.514 234.605 297.249 232.177 293.098 231.237C289.025 230.298 273.597 226.93 266.47 218.942C259.343 210.875 259.891 194.271 259.891 194.271C259.891 194.271 251.276 201.398 248.535 207.429C246.029 213.538 229.896 238.129 229.896 238.129Z" fill="#E0FFFF"/>
<path opacity="0.8" d="M188.936 118.695C187.918 141.564 224.883 201.32 229.896 196.856C234.83 192.392 239.529 163.884 237.571 154.251C235.613 144.618 217.6 99.5071 211.883 94.808C206.166 90.1089 191.912 88.6992 191.912 88.6992L188.936 118.695Z" fill="#C9FFFF"/>
<defs>
<radialGradient id="paint0_radial_230_3130" cx="0" cy="0" r="1" gradientUnits="userSpaceOnUse" gradientTransform="translate(168 168) rotate(90) scale(234)">
<stop stop-color="#9BCFFF"/>
<stop offset="1" stop-color="#E5F4F9"/>
</radialGradient>
<linearGradient id="paint1_linear_230_3130" x1="171.568" y1="287.946" x2="171.568" y2="83.0263" gradientUnits="userSpaceOnUse">
<stop stop-color="#0085F7"/>
<stop offset="0.1648" stop-color="#0592F7"/>
<stop offset="0.4686" stop-color="#12B4F5"/>
<stop offset="0.8746" stop-color="#27EAF4"/>
<stop offset="1" stop-color="#2EFCF3"/>
</linearGradient>
</defs>
</svg>
