<svg width="525" height="442" viewBox="0 0 525 442" fill="none" xmlns="http://www.w3.org/2000/svg">
<path d="M230.639 423.535C187.119 423.535 143.748 422.65 100.228 423.83C65.4129 424.715 50.0706 406.57 49.7755 375C49.3329 322.039 49.923 269.078 50.0705 215.97C50.0705 201.808 49.628 187.498 50.6606 173.336C52.2834 150.322 70.8713 135.127 95.8026 135.422C131.356 136.013 167.056 136.012 202.609 136.012C234.474 136.16 266.487 136.16 298.352 136.012C320.48 135.865 342.461 134.98 364.589 134.832C383.325 134.685 398.225 141.766 406.191 159.469C408.994 165.517 410.469 172.598 410.469 179.237C410.764 245.77 410.617 312.155 410.617 378.688C410.617 406.127 393.504 423.387 366.065 423.387C321.07 423.535 275.928 423.535 230.639 423.535ZM163.663 319.826C163.516 318.793 163.368 317.761 163.221 316.728C160.713 316.433 158.205 315.99 155.549 315.99C142.715 315.99 130.028 315.99 117.193 315.99C114.981 315.99 112.325 316.433 110.702 315.4C108.49 313.925 105.539 311.417 105.539 309.352C105.539 307.287 108.49 304.779 110.85 303.451C112.473 302.418 115.128 302.861 117.341 302.861C129.88 302.861 142.42 302.861 154.959 302.861C163.811 302.861 164.548 301.828 164.696 293.124C164.991 277.782 165.286 262.44 165.581 246.95C165.729 242.377 163.516 239.721 159.09 239.721C142.42 239.574 125.75 239.279 109.08 240.016C105.982 240.164 101.999 244.737 100.228 248.13C98.4581 251.67 98.4581 256.244 98.4581 260.374C98.3106 275.864 98.3106 291.354 98.4581 306.697C98.4581 316.433 103.474 321.596 113.505 321.744C127.815 321.891 141.977 321.891 156.287 321.744C158.647 321.744 161.155 320.416 163.663 319.826ZM333.757 302.271C333.905 303.008 333.719 302.752 334.014 303.49C337.874 303.841 343.641 301.238 346.887 298.14C350.575 294.6 352.197 288.994 355.443 284.863C364.294 273.799 364.294 256.391 355 246.212C344.526 234.705 329.036 232.788 316.497 241.196C302.482 250.638 299.974 270.848 311.039 284.568C313.251 287.224 316.349 289.731 317.087 292.682C319.3 302.123 325.348 304.041 333.757 302.271ZM235.064 237.951C228.721 237.508 221.787 238.541 216.034 244.442C211.018 249.605 208.658 256.686 211.756 259.932C215.001 263.325 220.607 261.112 225.918 254.621C229.901 249.605 236.392 248.425 241.703 251.966C247.309 255.801 246.571 261.259 244.211 266.423C243.031 268.931 240.375 270.701 238.457 272.914C235.359 276.897 231.819 280.732 229.458 285.158C227.836 288.404 225.918 293.272 231.524 294.895C235.949 296.075 240.375 296.37 243.031 290.321C244.948 285.748 248.784 281.913 252.324 278.372C257.488 273.356 261.618 268.341 261.766 260.817C262.209 246.802 252.324 237.951 235.064 237.951ZM327.561 308.762C321.955 308.614 319.447 311.712 321.808 316.581C325.791 324.547 338.478 325.432 343.494 318.203C346.739 313.483 345.411 310.532 339.658 309.942C335.97 309.647 331.987 309.204 327.561 308.762ZM234.474 305.811C230.048 306.254 226.803 308.614 226.951 314.073C227.098 319.384 230.049 321.891 235.359 321.891C240.67 321.891 242.883 319.531 242.735 314.368C242.588 309.057 240.67 305.959 234.474 305.811Z" fill="#4A90E2"/>
<path d="M306.588 82.4481C346.715 82.4481 386.712 83.0953 426.838 82.1892C447.937 81.6714 465.282 98.7576 464.635 119.727C463.859 145.745 464.506 171.762 464.506 197.78C464.506 231.305 464.117 264.83 464.635 298.355C464.894 315.442 448.196 331.751 434.734 333.434C426.968 334.34 425.415 333.434 425.415 325.667C425.415 274.927 425.544 224.056 425.285 173.316C425.156 152.864 416.354 137.072 397.844 127.882C392.019 125.034 385.158 123.222 378.557 123.093C363.542 122.575 348.397 123.61 333.382 123.61C326.133 123.61 318.755 122.704 311.507 122.834C260.895 123.093 210.284 123.61 159.673 123.869C146.987 123.999 145.046 121.021 148.541 108.854C152.942 93.7094 167.827 82.5775 183.749 82.5775C224.652 82.4481 265.555 82.5775 306.588 82.4481Z" fill="#386CAA"/>
<path d="M318.238 69.6349C281.865 69.6349 245.363 69.6349 208.99 69.6349C200.447 69.6349 198.635 67.1756 201.224 59.0208C206.401 42.5818 220.251 32.0971 237.467 32.0971C318.238 31.9676 399.009 31.9676 479.91 32.0971C495.831 32.0971 510.587 44.1351 513.694 59.668C514.988 65.7517 515.765 71.9649 515.765 78.178C515.894 130.213 515.894 182.378 515.765 234.413C515.765 240.626 515.247 246.839 514.341 253.053C512.529 266.514 501.009 279.07 488.194 282.177C479.004 284.377 476.933 282.953 476.933 273.504C476.933 221.987 476.803 170.599 476.933 119.081C477.062 97.2058 466.966 81.9318 447.42 73.3887C440.819 70.541 432.793 69.7644 425.286 69.7644C389.819 69.5055 354.093 69.6349 318.238 69.6349Z" fill="#89BBF6"/>
<path d="M4.53906 85.9893C13.7936 80.8067 26.2564 83.8916 32.0559 74.637C37.2384 66.3696 40.1999 56.7449 44.6421 46.75C45.5059 48.6009 46.2462 50.0816 46.7398 51.5624C48.4673 56.7449 49.8246 62.1742 51.7989 67.2334C55.3774 76.7347 63.2746 80.5599 72.6525 82.1641C75.9841 82.781 79.069 84.1384 83.5112 85.6191C73.3929 90.5548 62.9044 93.0227 56.4879 99.5626C50.1948 105.979 48.0971 116.591 43.9017 125.599C40.1999 116.714 38.4724 105.732 32.0559 99.3158C25.7628 92.7759 14.9042 90.6782 4.53906 85.9893Z" fill="#4A90E2"/>
<path d="M468.298 441.385C464.315 432.386 462.545 422.944 456.791 417.044C451.185 411.29 441.744 409.225 433.778 405.389C441.744 401.554 451.333 399.488 456.939 393.587C462.545 387.834 464.315 378.245 468.298 369.246C472.134 377.95 474.052 387.244 479.657 393.145C485.263 399.046 494.705 401.259 503.114 405.537C494.852 409.372 485.263 411.438 479.657 417.339C473.904 422.944 472.134 432.533 468.298 441.385Z" fill="#386CAA"/>
<path d="M60.4546 29.6145C78.0999 27.0233 85.3801 15.9178 88.9586 0C91.5498 16.4114 99.5704 26.7765 118.203 28.1338C109.812 32.4526 102.038 34.4269 97.5961 39.2393C93.0306 44.175 91.7966 52.1956 88.0948 59.3525C85.6269 43.558 79.2105 31.5888 60.4546 29.6145Z" fill="#4A90E2"/>
<path d="M15.4242 12.3262C16.7816 22.4445 23.0747 26.5165 33.3164 29.2311C24.0618 33.3031 16.4114 36.6348 15.9178 46.9999C12.0926 39.7196 10.1183 31.5756 0 30.5885C7.03345 26.2697 14.4371 22.5679 15.4242 12.3262Z" fill="#4A90E2"/>
<path d="M505.622 332.365C509.015 341.512 515.358 346.38 524.357 349.035C515.211 353.166 507.834 358.182 506.212 369.541C503.704 359.214 498.836 352.428 488.214 350.068C495.738 345.495 504.441 343.134 505.622 332.365Z" fill="#386CAA"/>
<path d="M163.663 319.827C161.156 320.565 158.648 321.745 156.14 321.745C141.83 321.892 127.668 322.04 113.358 321.745C103.327 321.597 98.4584 316.434 98.3108 306.698C98.1633 291.208 98.1633 275.718 98.3108 260.375C98.3108 256.245 98.3108 251.671 100.081 248.131C101.851 244.738 105.834 240.165 108.932 240.017C125.603 239.132 142.273 239.575 158.943 239.722C163.221 239.722 165.434 242.23 165.434 246.951C164.991 262.293 164.844 277.635 164.549 293.125C164.401 301.977 163.516 302.862 154.812 302.862C142.273 302.862 129.733 302.862 117.194 302.862C114.981 302.862 112.326 302.419 110.703 303.452C108.49 304.78 105.392 307.288 105.392 309.353C105.392 311.418 108.342 314.074 110.555 315.401C112.178 316.434 114.833 315.991 117.046 315.991C129.881 315.991 142.568 315.991 155.402 315.991C157.91 315.991 160.418 316.434 163.073 316.729C163.221 317.762 163.516 318.794 163.663 319.827Z" fill="white"/>
<path d="M336.119 303.492C327.71 305.262 319.3 302.125 317.087 292.683C316.349 289.586 313.251 287.225 311.039 284.57C299.974 270.998 302.482 250.639 316.497 241.198C329.036 232.789 344.526 234.707 355 246.214C364.294 256.393 364.294 273.801 355.443 284.865C352.198 288.995 350.575 294.601 346.887 298.142C343.641 301.24 340.397 301.426 336.119 303.492C336.267 304.229 335.824 302.902 336.119 303.492ZM313.546 262.884C313.989 263.621 314.874 265.539 316.349 266.572C316.792 266.867 319.89 265.244 320.038 264.212C321.513 257.721 325.791 254.328 331.692 252.115C333.019 251.672 333.61 249.312 334.495 247.689C332.872 246.951 331.102 245.624 329.479 245.624C321.808 245.771 314.137 253.737 313.546 262.884Z" fill="white"/>
<path d="M326.538 308.872C331.478 308.824 335.93 308.831 340.219 308.857C346.643 308.811 348.486 311.999 345.51 317.767C340.902 326.605 326.608 327.029 321.373 318.622C317.982 313.402 320.333 309.402 326.538 308.872Z" fill="white"/>
<path d="M235.065 237.951C252.325 237.951 262.209 246.802 261.914 260.67C261.766 268.193 257.636 273.357 252.472 278.225C248.932 281.765 245.096 285.748 243.179 290.174C240.523 296.223 236.097 295.928 231.672 294.747C226.066 293.125 227.836 288.256 229.606 285.011C231.967 280.585 235.507 276.75 238.605 272.766C240.376 270.554 243.179 268.783 244.359 266.275C246.719 261.112 247.604 255.654 241.851 251.818C236.54 248.278 230.049 249.458 226.066 254.474C220.755 260.965 215.149 263.177 211.904 259.784C208.806 256.539 211.166 249.458 216.182 244.295C221.64 238.541 228.574 237.361 235.065 237.951Z" fill="white"/>
<path d="M234.475 305.812C240.67 305.96 242.588 309.206 242.736 314.369C242.883 319.532 240.523 321.892 235.36 321.892C230.049 321.892 227.098 319.385 226.951 314.074C226.803 308.615 229.901 306.255 234.475 305.812Z" fill="white"/>
<path d="M313.547 262.881C314.137 253.735 321.956 245.769 329.627 245.621C331.25 245.621 333.02 246.949 334.643 247.686C333.757 249.162 333.167 251.522 331.84 252.112C325.939 254.325 321.661 257.718 320.185 264.209C319.89 265.242 316.94 266.864 316.497 266.569C314.875 265.389 313.989 263.471 313.547 262.881Z" fill="#4A90E2"/>
</svg>
